<svg xmlns="http://www.w3.org/2000/svg" width="108.001" height="86" viewBox="0 0 108.001 86"><defs><style>.a{fill:#ab78b2;}.b{fill:#8d6292;}</style></defs><g transform="translate(-966.5 -943.5)"><path class="a" d="M-859.25-3346H-868a8.009,8.009,0,0,1-8-8v-5h0v-37h0v-20a8.009,8.009,0,0,1,8-8h8.749A10.937,10.937,0,0,0-849-3417a10.937,10.937,0,0,0,10.25-7H-777a8.009,8.009,0,0,1,8,8v20a8.01,8.01,0,0,1-8,8H-826.75A11,11,0,0,1-837-3381a11,11,0,0,1-10.25-7h-8.87a8,8,0,0,0-7.881,8v5a8,8,0,0,0,8,8h8.75a10.938,10.938,0,0,0,10.25,7,10.939,10.939,0,0,0,10.251-7H-777a8.008,8.008,0,0,1,8,8v5a8.008,8.008,0,0,1-8,8h-61.75a11,11,0,0,1-10.25,7A11,11,0,0,1-859.25-3346Z" transform="translate(1843 4368)"/><path class="b" d="M-849-3338.5a11.433,11.433,0,0,1-6.56-2.053,11.481,11.481,0,0,1-4.026-4.947H-868a8.509,8.509,0,0,1-8.5-8.5v-62a8.51,8.51,0,0,1,8.5-8.5h9.09l.124.318A10.44,10.44,0,0,0-849-3417.5a10.44,10.44,0,0,0,9.784-6.682l.124-.318H-777a8.51,8.51,0,0,1,8.5,8.5v20a8.51,8.51,0,0,1-8.5,8.5h-49.415a11.487,11.487,0,0,1-4.026,4.947A11.431,11.431,0,0,1-837-3380.5a11.432,11.432,0,0,1-6.559-2.053,11.485,11.485,0,0,1-4.027-4.947h-8.53a7.529,7.529,0,0,0-7.385,7.5v5a7.509,7.509,0,0,0,7.5,7.5h9.091l.124.318A10.44,10.44,0,0,0-837-3360.5a10.441,10.441,0,0,0,9.785-6.682l.124-.318H-777a8.51,8.51,0,0,1,8.5,8.5v5a8.509,8.509,0,0,1-8.5,8.5h-61.414a11.48,11.48,0,0,1-4.026,4.947A11.433,11.433,0,0,1-849-3338.5Zm-26.5-57v41.5a7.508,7.508,0,0,0,7.5,7.5h9.091l.124.318A10.438,10.438,0,0,0-849-3339.5a10.438,10.438,0,0,0,9.784-6.682l.124-.318H-777a7.508,7.508,0,0,0,7.5-7.5v-5a7.509,7.509,0,0,0-7.5-7.5h-49.413a11.432,11.432,0,0,1-10.587,7,11.431,11.431,0,0,1-10.586-7H-856a8.51,8.51,0,0,1-8.5-8.5v-5a8.45,8.45,0,0,1,2.448-5.969,8.447,8.447,0,0,1,5.926-2.531h9.218l.124.318A10.44,10.44,0,0,0-837-3381.5a10.439,10.439,0,0,0,9.783-6.682l.124-.318H-777a7.509,7.509,0,0,0,7.5-7.5v-20a7.509,7.509,0,0,0-7.5-7.5h-61.414a11.43,11.43,0,0,1-10.586,7,11.431,11.431,0,0,1-10.587-7H-868a7.509,7.509,0,0,0-7.5,7.5Z" transform="translate(1843 4368)"/></g></svg>