<svg xmlns="http://www.w3.org/2000/svg" width="116" height="128" viewBox="0 0 116 128"><defs><style>.a{fill:#ab78b2;}.b{fill:#8d6292;}</style></defs><g transform="translate(-966.5 -1039.5)"><path class="a" d="M-859.25-3304H-868a8.009,8.009,0,0,1-8-8v-41h.062a8.056,8.056,0,0,1-.062-1v-62a8.009,8.009,0,0,1,8-8h8.75a10.936,10.936,0,0,0,10.25,7,10.936,10.936,0,0,0,10.25-7H-769a8.009,8.009,0,0,1,8,8v20a8.009,8.009,0,0,1-8,8h-57.749a11,11,0,0,1-10.25,7,11,11,0,0,1-10.251-7H-856a8,8,0,0,0-8,8v5a8,8,0,0,0,8,8h8.75a10.938,10.938,0,0,0,10.25,7,10.939,10.939,0,0,0,10.251-7H-769a8.009,8.009,0,0,1,8,8v5a8.008,8.008,0,0,1-8,8h-57.749a11,11,0,0,1-10.25,7,11,11,0,0,1-10.251-7H-856a8,8,0,0,0-8,8v5a8,8,0,0,0,8,8h8.75a10.936,10.936,0,0,0,10.25,7,10.937,10.937,0,0,0,10.251-7H-769a8.009,8.009,0,0,1,8,8v5a8.008,8.008,0,0,1-8,8h-69.75a11,11,0,0,1-10.25,7A11,11,0,0,1-859.25-3304Z" transform="translate(1843 4464)"/><path class="b" d="M-849-3296.5a11.433,11.433,0,0,1-6.56-2.053,11.481,11.481,0,0,1-4.026-4.947H-868a8.509,8.509,0,0,1-8.5-8.5v-41.5h.015c-.01-.166-.015-.333-.015-.5v-62a8.51,8.51,0,0,1,8.5-8.5h9.091l.124.318A10.44,10.44,0,0,0-849-3417.5a10.44,10.44,0,0,0,9.784-6.682l.124-.318H-769a8.51,8.51,0,0,1,8.5,8.5v20a8.51,8.51,0,0,1-8.5,8.5h-57.413a11.486,11.486,0,0,1-4.027,4.947A11.432,11.432,0,0,1-837-3380.5a11.434,11.434,0,0,1-6.56-2.053,11.486,11.486,0,0,1-4.027-4.947H-856a7.509,7.509,0,0,0-7.5,7.5v5a7.509,7.509,0,0,0,7.5,7.5h9.091l.124.318A10.44,10.44,0,0,0-837-3360.5a10.441,10.441,0,0,0,9.785-6.682l.124-.318H-769a8.51,8.51,0,0,1,8.5,8.5v5a8.509,8.509,0,0,1-8.5,8.5h-57.413a11.486,11.486,0,0,1-4.027,4.947A11.432,11.432,0,0,1-837-3338.5a11.434,11.434,0,0,1-6.56-2.053,11.486,11.486,0,0,1-4.027-4.947H-856a7.509,7.509,0,0,0-7.5,7.5v5a7.509,7.509,0,0,0,7.5,7.5h9.091l.124.318A10.44,10.44,0,0,0-837-3318.5a10.44,10.44,0,0,0,9.785-6.682l.124-.318H-769a8.51,8.51,0,0,1,8.5,8.5v5a8.509,8.509,0,0,1-8.5,8.5h-69.414a11.479,11.479,0,0,1-4.026,4.947A11.433,11.433,0,0,1-849-3296.5Zm-26.5-56v40.5a7.508,7.508,0,0,0,7.5,7.5h9.091l.124.318A10.438,10.438,0,0,0-849-3297.5a10.438,10.438,0,0,0,9.784-6.682l.124-.318H-769a7.508,7.508,0,0,0,7.5-7.5v-5a7.509,7.509,0,0,0-7.5-7.5h-57.413a11.431,11.431,0,0,1-10.587,7,11.43,11.43,0,0,1-10.586-7H-856a8.51,8.51,0,0,1-8.5-8.5v-5a8.51,8.51,0,0,1,8.5-8.5h9.091l.124.318A10.441,10.441,0,0,0-837-3339.5a10.44,10.44,0,0,0,9.784-6.682l.124-.318H-769a7.508,7.508,0,0,0,7.5-7.5v-5a7.509,7.509,0,0,0-7.5-7.5h-57.413a11.432,11.432,0,0,1-10.587,7,11.431,11.431,0,0,1-10.586-7H-856a8.51,8.51,0,0,1-8.5-8.5v-5a8.51,8.51,0,0,1,8.5-8.5h9.091l.124.318A10.441,10.441,0,0,0-837-3381.5a10.44,10.44,0,0,0,9.784-6.682l.124-.318H-769a7.509,7.509,0,0,0,7.5-7.5v-20a7.509,7.509,0,0,0-7.5-7.5h-69.414a11.43,11.43,0,0,1-10.586,7,11.43,11.43,0,0,1-10.586-7H-868a7.509,7.509,0,0,0-7.5,7.5v62a7.582,7.582,0,0,0,.058.937l.07.562Z" transform="translate(1843 4464)"/></g></svg>