<svg xmlns="http://www.w3.org/2000/svg" width="135" height="44" viewBox="0 0 135 44"><defs><style>.a{fill:#f3923f;}.b{fill:#e28433;}</style></defs><g transform="translate(-966.5 -890.5)"><path class="a" d="M-1647.25-793H-1656a8.01,8.01,0,0,1-8-8v-20a8.009,8.009,0,0,1,8-8h8.75a10.937,10.937,0,0,0,10.25,7,10.937,10.937,0,0,0,10.25-7H-1538a8.009,8.009,0,0,1,8,8v20a8.009,8.009,0,0,1-8,8h-88.749A11,11,0,0,1-1637-786,11,11,0,0,1-1647.25-793Z" transform="translate(2631 1720)"/><path class="b" d="M-1637-785.5a11.432,11.432,0,0,1-6.56-2.053,11.482,11.482,0,0,1-4.026-4.947H-1656a8.51,8.51,0,0,1-8.5-8.5v-20a8.51,8.51,0,0,1,8.5-8.5h9.091l.124.318A10.44,10.44,0,0,0-1637-822.5a10.44,10.44,0,0,0,9.784-6.682l.124-.318H-1538a8.51,8.51,0,0,1,8.5,8.5v20a8.51,8.51,0,0,1-8.5,8.5h-88.413a11.484,11.484,0,0,1-4.027,4.947A11.433,11.433,0,0,1-1637-785.5Zm-19-43a7.509,7.509,0,0,0-7.5,7.5v20a7.509,7.509,0,0,0,7.5,7.5h9.091l.124.318A10.439,10.439,0,0,0-1637-786.5a10.44,10.44,0,0,0,9.785-6.682l.124-.318H-1538a7.509,7.509,0,0,0,7.5-7.5v-20a7.509,7.509,0,0,0-7.5-7.5h-88.414a11.43,11.43,0,0,1-10.586,7,11.43,11.43,0,0,1-10.586-7Z" transform="translate(2631 1720)"/></g></svg>