<svg xmlns="http://www.w3.org/2000/svg" width="56" height="56" viewBox="0 0 56 56"><defs><style>.a{fill:#fff;}.b{fill:#4285f4;}.c{fill:#34a853;}.d{fill:#fbbc05;}.e{fill:#ea4335;}</style></defs><g transform="translate(-496 -476)"><rect class="a" width="56" height="56" rx="28" transform="translate(496 476)"/><g transform="translate(538.797 452.761)"><path class="b" d="M-2.785,51.6a14.482,14.482,0,0,0-.2-2.365H-14.754v4.7h6.74a5.8,5.8,0,0,1-2.5,3.729v3.125h4.021A12.222,12.222,0,0,0-2.785,51.6Z" transform="translate(0.5 0.417)"/><path class="c" d="M-14.308,63.644a11.907,11.907,0,0,0,8.26-3.031l-4.021-3.125a7.541,7.541,0,0,1-4.24,1.208,7.465,7.465,0,0,1-7.01-5.167h-4.146v3.219A12.481,12.481,0,0,0-14.308,63.644Z" transform="translate(0.054 0.595)"/><path class="d" d="M-21.264,53.849a7.254,7.254,0,0,1-.4-2.385,7.536,7.536,0,0,1,.4-2.385V45.859H-25.41a12.355,12.355,0,0,0-1.344,5.6,12.355,12.355,0,0,0,1.344,5.6Z" transform="translate(0 0.276)"/><path class="e" d="M-14.308,44.187a6.782,6.782,0,0,1,4.792,1.875L-5.954,42.5a11.951,11.951,0,0,0-8.354-3.26,12.481,12.481,0,0,0-11.156,6.9l4.146,3.219A7.465,7.465,0,0,1-14.308,44.187Z" transform="translate(0.054)"/></g></g></svg>