<svg xmlns="http://www.w3.org/2000/svg" width="24" height="24" viewBox="0 0 24 24"><defs><style>.a{fill:none;}.b{fill:#707070;}</style></defs><g transform="translate(-114 -205)"><rect class="a" width="24" height="24" transform="translate(114 205)"/><g transform="translate(118 207)"><path class="b" d="M15.5,4H.5a.472.472,0,0,0-.5.5v11a.472.472,0,0,0,.5.5h15a.472.472,0,0,0,.5-.5V4.5A.472.472,0,0,0,15.5,4ZM14.3,6.4l-6,4a.711.711,0,0,1-.3.1.711.711,0,0,1-.3-.1l-6-4a.529.529,0,0,1-.1-.7.529.529,0,0,1,.7-.1L8,9.4l5.7-3.8a.492.492,0,0,1,.7.15A.474.474,0,0,1,14.3,6.4Z"/></g></g></svg>